<svg width="25" height="24" viewBox="0 0 25 24" fill="none" xmlns="http://www.w3.org/2000/svg">
<path d="M12.334 20.9999L10.884 19.6999C9.20065 18.1832 7.80898 16.8749 6.70898 15.7749C5.60898 14.6749 4.73398 13.6874 4.08398 12.8124C3.43398 11.9374 2.97982 11.1332 2.72148 10.3999C2.46315 9.66657 2.33398 8.91657 2.33398 8.1499C2.33398 6.58324 2.85898 5.2749 3.90898 4.2249C4.95898 3.1749 6.26732 2.6499 7.83398 2.6499C8.70065 2.6499 9.52565 2.83324 10.309 3.1999C11.0923 3.56657 11.7673 4.08324 12.334 4.7499C12.9007 4.08324 13.5757 3.56657 14.359 3.1999C15.1423 2.83324 15.9673 2.6499 16.834 2.6499C18.4007 2.6499 19.709 3.1749 20.759 4.2249C21.809 5.2749 22.334 6.58324 22.334 8.1499C22.334 8.91657 22.2048 9.66657 21.9465 10.3999C21.6882 11.1332 21.234 11.9374 20.584 12.8124C19.934 13.6874 19.059 14.6749 17.959 15.7749C16.859 16.8749 15.4673 18.1832 13.784 19.6999L12.334 20.9999ZM12.334 18.2999C13.934 16.8666 15.2507 15.6374 16.284 14.6124C17.3173 13.5874 18.134 12.6957 18.734 11.9374C19.334 11.1791 19.7507 10.5041 19.984 9.9124C20.2173 9.32074 20.334 8.73324 20.334 8.1499C20.334 7.1499 20.0007 6.31657 19.334 5.6499C18.6673 4.98324 17.834 4.6499 16.834 4.6499C16.0507 4.6499 15.3257 4.87074 14.659 5.3124C13.9923 5.75407 13.534 6.31657 13.284 6.9999H11.384C11.134 6.31657 10.6757 5.75407 10.009 5.3124C9.34232 4.87074 8.61732 4.6499 7.83398 4.6499C6.83398 4.6499 6.00065 4.98324 5.33398 5.6499C4.66732 6.31657 4.33398 7.1499 4.33398 8.1499C4.33398 8.73324 4.45065 9.32074 4.68398 9.9124C4.91732 10.5041 5.33398 11.1791 5.93398 11.9374C6.53398 12.6957 7.35065 13.5874 8.38398 14.6124C9.41732 15.6374 10.734 16.8666 12.334 18.2999Z" fill="#676767"/>
</svg>
