<svg width="25" height="24" viewBox="0 0 25 24" fill="none" xmlns="http://www.w3.org/2000/svg">
<path d="M6.66602 13C6.66602 13.5523 7.11373 14 7.66602 14H13.666C14.2183 14 14.666 13.5523 14.666 13C14.666 12.4477 14.2183 12 13.666 12H7.66602C7.11373 12 6.66602 12.4477 6.66602 13ZM6.66602 10C6.66602 10.5523 7.11373 11 7.66602 11H17.666C18.2183 11 18.666 10.5523 18.666 10C18.666 9.44772 18.2183 9 17.666 9H7.66602C7.11373 9 6.66602 9.44772 6.66602 10ZM6.66602 7C6.66602 7.55228 7.11373 8 7.66602 8H17.666C18.2183 8 18.666 7.55228 18.666 7C18.666 6.44772 18.2183 6 17.666 6H7.66602C7.11373 6 6.66602 6.44772 6.66602 7ZM4.37312 20.2929C3.74316 20.9229 2.66602 20.4767 2.66602 19.5858V4C2.66602 3.45 2.86185 2.97917 3.25352 2.5875C3.64518 2.19583 4.11602 2 4.66602 2H20.666C21.216 2 21.6868 2.19583 22.0785 2.5875C22.4702 2.97917 22.666 3.45 22.666 4V16C22.666 16.55 22.4702 17.0208 22.0785 17.4125C21.6868 17.8042 21.216 18 20.666 18H6.66602L4.37312 20.2929ZM5.81602 16H18.666C19.7706 16 20.666 15.1046 20.666 14V6C20.666 4.89543 19.7706 4 18.666 4H4.66602V15.5162C4.66602 16.1156 5.38759 16.4191 5.81602 16Z" fill="#676767"/>
</svg>
