<svg width="20" height="21" viewBox="0 0 20 21" fill="none" xmlns="http://www.w3.org/2000/svg">
<path d="M12.4815 8.32575C12.4815 8.15639 12.3441 8.01975 12.1747 8.01975C12.0054 8.02057 11.8679 8.15802 11.8679 8.32739C11.8679 8.49675 12.0054 8.63421 12.1747 8.63339C12.3441 8.63339 12.4815 8.49593 12.4815 8.32657" stroke="#D82323" stroke-width="1.56" stroke-linecap="round" stroke-linejoin="round"/>
<path fill-rule="evenodd" clip-rule="evenodd" d="M10.4097 12.7794L9.56697 13.6237H8.06806V14.8256H6.86942V16.3278L5.74524 17.4553H3.04688V14.7512L7.72933 10.0581C7.06988 8.34482 7.42333 6.33046 8.80197 4.94855C10.6674 3.079 13.6922 3.079 15.5577 4.94855C17.4232 6.81809 17.4232 9.84946 15.5577 11.7198C14.1651 13.114 12.1295 13.4658 10.4097 12.7794Z" stroke="#D82323" stroke-width="1.56" stroke-linecap="round" stroke-linejoin="round"/>
</svg>
