<svg width="19" height="19" viewBox="0 0 19 19" fill="none" xmlns="http://www.w3.org/2000/svg">
<path fill-rule="evenodd" clip-rule="evenodd" d="M5.2795 5.07539C5.57924 4.77565 6.06522 4.77565 6.36497 5.07539L9.65995 8.37038L12.9549 5.07539C13.2547 4.77565 13.7407 4.77565 14.0404 5.07539C14.3402 5.37514 14.3402 5.86112 14.0404 6.16087L10.7454 9.45585L14.0404 12.7508C14.3402 13.0506 14.3402 13.5366 14.0404 13.8363C13.7407 14.136 13.2547 14.136 12.9549 13.8363L9.65995 10.5413L6.36497 13.8363C6.06522 14.136 5.57924 14.136 5.2795 13.8363C4.97975 13.5366 4.97975 13.0506 5.2795 12.7508L8.57448 9.45585L5.2795 6.16087C4.97975 5.86112 4.97975 5.37514 5.2795 5.07539Z" fill="white" stroke="white" stroke-width="2.30263" stroke-linecap="round" stroke-linejoin="round"/>
</svg>
