<svg width="17" height="16" viewBox="0 0 17 16" fill="none" xmlns="http://www.w3.org/2000/svg">
<path d="M5.96176 15.9882L5.64707 13.4707C5.47662 13.4051 5.316 13.3265 5.16521 13.2347C5.01442 13.1429 4.86691 13.0446 4.72268 12.9397L2.38221 13.923L0.21875 10.1862L2.24454 8.65207C2.23142 8.56029 2.22487 8.47178 2.22487 8.38655V7.85552C2.22487 7.7703 2.23142 7.68179 2.24454 7.59001L0.21875 6.05592L2.38221 2.31903L4.72268 3.30242C4.86691 3.19753 5.0177 3.09919 5.17504 3.0074C5.33239 2.91562 5.48973 2.83695 5.64707 2.77139L5.96176 0.253906H10.2887L10.6034 2.77139C10.7738 2.83695 10.9344 2.91562 11.0852 3.0074C11.236 3.09919 11.3835 3.19753 11.5278 3.30242L13.8682 2.31903L16.0317 6.05592L14.0059 7.59001C14.019 7.68179 14.0256 7.7703 14.0256 7.85552V8.38655C14.0256 8.47178 14.0125 8.56029 13.9862 8.65207L16.012 10.1862L13.8486 13.923L11.5278 12.9397C11.3835 13.0446 11.2327 13.1429 11.0754 13.2347C10.9181 13.3265 10.7607 13.4051 10.6034 13.4707L10.2887 15.9882H5.96176ZM7.33851 14.4147H8.89226L9.16761 12.33C9.57408 12.2251 9.95105 12.071 10.2985 11.8678C10.646 11.6645 10.9639 11.4187 11.2524 11.1302L13.1995 11.9366L13.9666 10.5992L12.2751 9.32078C12.3407 9.13721 12.3866 8.94381 12.4128 8.74058C12.439 8.53734 12.4521 8.33083 12.4521 8.12104C12.4521 7.91125 12.439 7.70474 12.4128 7.5015C12.3866 7.29827 12.3407 7.10487 12.2751 6.9213L13.9666 5.64289L13.1995 4.30548L11.2524 5.13153C10.9639 4.82996 10.646 4.57755 10.2985 4.37432C9.95105 4.17108 9.57408 4.01702 9.16761 3.91212L8.91193 1.82733H7.35817L7.08282 3.91212C6.67635 4.01702 6.29939 4.17108 5.95192 4.37432C5.60446 4.57755 5.28649 4.8234 4.99803 5.11186L3.05092 4.30548L2.28387 5.64289L3.97531 6.90163C3.90975 7.09831 3.86385 7.29499 3.83763 7.49167C3.81141 7.68835 3.7983 7.89814 3.7983 8.12104C3.7983 8.33083 3.81141 8.53406 3.83763 8.73074C3.86385 8.92742 3.90975 9.1241 3.97531 9.32078L2.28387 10.5992L3.05092 11.9366L4.99803 11.1105C5.28649 11.4121 5.60446 11.6645 5.95192 11.8678C6.29939 12.071 6.67635 12.2251 7.08282 12.33L7.33851 14.4147ZM8.16455 10.8745C8.92504 10.8745 9.57408 10.6057 10.1117 10.0682C10.6493 9.53057 10.9181 8.88153 10.9181 8.12104C10.9181 7.36055 10.6493 6.71151 10.1117 6.17392C9.57408 5.63634 8.92504 5.36754 8.16455 5.36754C7.39095 5.36754 6.73864 5.63634 6.2076 6.17392C5.67657 6.71151 5.41106 7.36055 5.41106 8.12104C5.41106 8.88153 5.67657 9.53057 6.2076 10.0682C6.73864 10.6057 7.39095 10.8745 8.16455 10.8745Z" fill="#D82323"/>
</svg>
